<mxfile host="app.diagrams.net" modified="2022-12-13T08:53:04.152Z" agent="5.0 (Windows NT 10.0; Win64; x64) AppleWebKit/537.36 (KHTML, like Gecko) Chrome/108.0.0.0 Safari/537.36" version="20.6.2" etag="yF8EvhneVkEwjtkVprKM" type="github">
  <diagram id="_suayj8l5mrwuvONxj8S" name="페이지-1">
    <mxGraphModel dx="1221" dy="566" grid="1" gridSize="10" guides="1" tooltips="1" connect="1" arrows="1" fold="1" page="1" pageScale="1" pageWidth="827" pageHeight="1169" math="0" shadow="0">
      <root>
        <mxCell id="0" />
        <mxCell id="1" parent="0" />
        <mxCell id="VxMhAQQ1G3gWdsac0ksz-92" style="edgeStyle=orthogonalEdgeStyle;rounded=0;orthogonalLoop=1;jettySize=auto;html=1;entryX=0.5;entryY=0;entryDx=0;entryDy=0;strokeColor=#FF0000;" edge="1" parent="1" source="VxMhAQQ1G3gWdsac0ksz-1" target="VxMhAQQ1G3gWdsac0ksz-2">
          <mxGeometry relative="1" as="geometry" />
        </mxCell>
        <mxCell id="VxMhAQQ1G3gWdsac0ksz-1" value="Protected File" style="rounded=0;whiteSpace=wrap;html=1;fillColor=#dae8fc;strokeColor=#6c8ebf;" vertex="1" parent="1">
          <mxGeometry x="120" y="80" width="80" height="30" as="geometry" />
        </mxCell>
        <mxCell id="VxMhAQQ1G3gWdsac0ksz-96" style="edgeStyle=orthogonalEdgeStyle;rounded=0;orthogonalLoop=1;jettySize=auto;html=1;strokeColor=#FF0000;" edge="1" parent="1" source="VxMhAQQ1G3gWdsac0ksz-2" target="VxMhAQQ1G3gWdsac0ksz-93">
          <mxGeometry relative="1" as="geometry" />
        </mxCell>
        <mxCell id="VxMhAQQ1G3gWdsac0ksz-2" value="bobalkkagi" style="swimlane;fontStyle=0;childLayout=stackLayout;horizontal=1;startSize=30;horizontalStack=0;resizeParent=1;resizeParentMax=0;resizeLast=0;collapsible=1;marginBottom=0;whiteSpace=wrap;html=1;" vertex="1" parent="1">
          <mxGeometry x="90" y="140" width="140" height="90" as="geometry" />
        </mxCell>
        <mxCell id="VxMhAQQ1G3gWdsac0ksz-3" value="unpacking" style="text;strokeColor=#666666;fillColor=#f5f5f5;align=left;verticalAlign=middle;spacingLeft=4;spacingRight=4;overflow=hidden;points=[[0,0.5],[1,0.5]];portConstraint=eastwest;rotatable=0;whiteSpace=wrap;html=1;fontColor=#333333;" vertex="1" parent="VxMhAQQ1G3gWdsac0ksz-2">
          <mxGeometry y="30" width="140" height="30" as="geometry" />
        </mxCell>
        <mxCell id="VxMhAQQ1G3gWdsac0ksz-4" value="unwrapping" style="text;strokeColor=#666666;fillColor=#f5f5f5;align=left;verticalAlign=middle;spacingLeft=4;spacingRight=4;overflow=hidden;points=[[0,0.5],[1,0.5]];portConstraint=eastwest;rotatable=0;whiteSpace=wrap;html=1;fontColor=#333333;" vertex="1" parent="VxMhAQQ1G3gWdsac0ksz-2">
          <mxGeometry y="60" width="140" height="30" as="geometry" />
        </mxCell>
        <mxCell id="VxMhAQQ1G3gWdsac0ksz-8" value="unpacking.py" style="swimlane;fontStyle=0;childLayout=stackLayout;horizontal=1;startSize=30;horizontalStack=0;resizeParent=1;resizeParentMax=0;resizeLast=0;collapsible=1;marginBottom=0;whiteSpace=wrap;html=1;" vertex="1" parent="1">
          <mxGeometry x="280" y="50" width="140" height="150" as="geometry" />
        </mxCell>
        <mxCell id="VxMhAQQ1G3gWdsac0ksz-9" value="PE_loader" style="text;strokeColor=none;fillColor=none;align=left;verticalAlign=middle;spacingLeft=4;spacingRight=4;overflow=hidden;points=[[0,0.5],[1,0.5]];portConstraint=eastwest;rotatable=0;whiteSpace=wrap;html=1;" vertex="1" parent="VxMhAQQ1G3gWdsac0ksz-8">
          <mxGeometry y="30" width="140" height="30" as="geometry" />
        </mxCell>
        <mxCell id="VxMhAQQ1G3gWdsac0ksz-10" value="setUpStructure" style="text;strokeColor=none;fillColor=none;align=left;verticalAlign=middle;spacingLeft=4;spacingRight=4;overflow=hidden;points=[[0,0.5],[1,0.5]];portConstraint=eastwest;rotatable=0;whiteSpace=wrap;html=1;" vertex="1" parent="VxMhAQQ1G3gWdsac0ksz-8">
          <mxGeometry y="60" width="140" height="30" as="geometry" />
        </mxCell>
        <mxCell id="VxMhAQQ1G3gWdsac0ksz-11" value="hook_api" style="text;strokeColor=none;fillColor=none;align=left;verticalAlign=middle;spacingLeft=4;spacingRight=4;overflow=hidden;points=[[0,0.5],[1,0.5]];portConstraint=eastwest;rotatable=0;whiteSpace=wrap;html=1;" vertex="1" parent="VxMhAQQ1G3gWdsac0ksz-8">
          <mxGeometry y="90" width="140" height="30" as="geometry" />
        </mxCell>
        <mxCell id="VxMhAQQ1G3gWdsac0ksz-76" value="return dump, OEP" style="text;strokeColor=#82b366;fillColor=#d5e8d4;align=left;verticalAlign=middle;spacingLeft=4;spacingRight=4;overflow=hidden;points=[[0,0.5],[1,0.5]];portConstraint=eastwest;rotatable=0;whiteSpace=wrap;html=1;" vertex="1" parent="VxMhAQQ1G3gWdsac0ksz-8">
          <mxGeometry y="120" width="140" height="30" as="geometry" />
        </mxCell>
        <mxCell id="VxMhAQQ1G3gWdsac0ksz-12" style="edgeStyle=orthogonalEdgeStyle;rounded=0;orthogonalLoop=1;jettySize=auto;html=1;entryX=-0.012;entryY=0.147;entryDx=0;entryDy=0;entryPerimeter=0;" edge="1" parent="1" source="VxMhAQQ1G3gWdsac0ksz-3" target="VxMhAQQ1G3gWdsac0ksz-8">
          <mxGeometry relative="1" as="geometry" />
        </mxCell>
        <mxCell id="VxMhAQQ1G3gWdsac0ksz-13" value="loader.py" style="swimlane;fontStyle=0;childLayout=stackLayout;horizontal=1;startSize=30;horizontalStack=0;resizeParent=1;resizeParentMax=0;resizeLast=0;collapsible=1;marginBottom=0;whiteSpace=wrap;html=1;" vertex="1" parent="1">
          <mxGeometry x="500" y="20" width="140" height="150" as="geometry" />
        </mxCell>
        <mxCell id="VxMhAQQ1G3gWdsac0ksz-14" value="PE_loader" style="text;strokeColor=none;fillColor=none;align=left;verticalAlign=middle;spacingLeft=4;spacingRight=4;overflow=hidden;points=[[0,0.5],[1,0.5]];portConstraint=eastwest;rotatable=0;whiteSpace=wrap;html=1;" vertex="1" parent="VxMhAQQ1G3gWdsac0ksz-13">
          <mxGeometry y="30" width="140" height="30" as="geometry" />
        </mxCell>
        <mxCell id="VxMhAQQ1G3gWdsac0ksz-15" value="Insert_IAT" style="text;strokeColor=none;fillColor=none;align=left;verticalAlign=middle;spacingLeft=4;spacingRight=4;overflow=hidden;points=[[0,0.5],[1,0.5]];portConstraint=eastwest;rotatable=0;whiteSpace=wrap;html=1;" vertex="1" parent="VxMhAQQ1G3gWdsac0ksz-13">
          <mxGeometry y="60" width="140" height="30" as="geometry" />
        </mxCell>
        <mxCell id="VxMhAQQ1G3gWdsac0ksz-16" value="NtDllPatch" style="text;strokeColor=none;fillColor=none;align=left;verticalAlign=middle;spacingLeft=4;spacingRight=4;overflow=hidden;points=[[0,0.5],[1,0.5]];portConstraint=eastwest;rotatable=0;whiteSpace=wrap;html=1;" vertex="1" parent="VxMhAQQ1G3gWdsac0ksz-13">
          <mxGeometry y="90" width="140" height="30" as="geometry" />
        </mxCell>
        <mxCell id="VxMhAQQ1G3gWdsac0ksz-29" value="Remove_Exec" style="text;strokeColor=none;fillColor=none;align=left;verticalAlign=middle;spacingLeft=4;spacingRight=4;overflow=hidden;points=[[0,0.5],[1,0.5]];portConstraint=eastwest;rotatable=0;whiteSpace=wrap;html=1;" vertex="1" parent="VxMhAQQ1G3gWdsac0ksz-13">
          <mxGeometry y="120" width="140" height="30" as="geometry" />
        </mxCell>
        <mxCell id="VxMhAQQ1G3gWdsac0ksz-19" style="edgeStyle=orthogonalEdgeStyle;rounded=0;orthogonalLoop=1;jettySize=auto;html=1;entryX=-0.021;entryY=0.119;entryDx=0;entryDy=0;entryPerimeter=0;" edge="1" parent="1" source="VxMhAQQ1G3gWdsac0ksz-9" target="VxMhAQQ1G3gWdsac0ksz-13">
          <mxGeometry relative="1" as="geometry" />
        </mxCell>
        <mxCell id="VxMhAQQ1G3gWdsac0ksz-44" value="setUpStructure" style="swimlane;startSize=0;" vertex="1" parent="1">
          <mxGeometry x="500" y="220" width="140" height="180" as="geometry">
            <mxRectangle x="560" y="210" width="50" height="40" as="alternateBounds" />
          </mxGeometry>
        </mxCell>
        <mxCell id="VxMhAQQ1G3gWdsac0ksz-46" value="InitTeb" style="rounded=1;whiteSpace=wrap;html=1;" vertex="1" parent="VxMhAQQ1G3gWdsac0ksz-44">
          <mxGeometry x="10" y="20" width="120" height="30" as="geometry" />
        </mxCell>
        <mxCell id="VxMhAQQ1G3gWdsac0ksz-47" value="InitPeb" style="rounded=1;whiteSpace=wrap;html=1;" vertex="1" parent="VxMhAQQ1G3gWdsac0ksz-44">
          <mxGeometry x="10" y="60" width="120" height="30" as="geometry" />
        </mxCell>
        <mxCell id="VxMhAQQ1G3gWdsac0ksz-48" value="InitProcessHeap" style="rounded=1;whiteSpace=wrap;html=1;" vertex="1" parent="VxMhAQQ1G3gWdsac0ksz-44">
          <mxGeometry x="10" y="100" width="120" height="30" as="geometry" />
        </mxCell>
        <mxCell id="VxMhAQQ1G3gWdsac0ksz-49" value="InitKuserSharedData" style="rounded=1;whiteSpace=wrap;html=1;" vertex="1" parent="VxMhAQQ1G3gWdsac0ksz-44">
          <mxGeometry x="10" y="140" width="120" height="30" as="geometry" />
        </mxCell>
        <mxCell id="VxMhAQQ1G3gWdsac0ksz-57" style="edgeStyle=orthogonalEdgeStyle;rounded=0;orthogonalLoop=1;jettySize=auto;html=1;entryX=0;entryY=0.5;entryDx=0;entryDy=0;" edge="1" parent="1" source="VxMhAQQ1G3gWdsac0ksz-10" target="VxMhAQQ1G3gWdsac0ksz-44">
          <mxGeometry relative="1" as="geometry" />
        </mxCell>
        <mxCell id="VxMhAQQ1G3gWdsac0ksz-58" value="teb.py" style="swimlane;fontStyle=0;childLayout=stackLayout;horizontal=1;startSize=30;horizontalStack=0;resizeParent=1;resizeParentMax=0;resizeLast=0;collapsible=1;marginBottom=0;whiteSpace=wrap;html=1;" vertex="1" parent="1">
          <mxGeometry x="690" y="190" width="140" height="60" as="geometry" />
        </mxCell>
        <mxCell id="VxMhAQQ1G3gWdsac0ksz-59" value="InitTeb" style="text;strokeColor=none;fillColor=none;align=left;verticalAlign=middle;spacingLeft=4;spacingRight=4;overflow=hidden;points=[[0,0.5],[1,0.5]];portConstraint=eastwest;rotatable=0;whiteSpace=wrap;html=1;" vertex="1" parent="VxMhAQQ1G3gWdsac0ksz-58">
          <mxGeometry y="30" width="140" height="30" as="geometry" />
        </mxCell>
        <mxCell id="VxMhAQQ1G3gWdsac0ksz-62" style="edgeStyle=orthogonalEdgeStyle;rounded=0;orthogonalLoop=1;jettySize=auto;html=1;entryX=0;entryY=0.25;entryDx=0;entryDy=0;" edge="1" parent="1" source="VxMhAQQ1G3gWdsac0ksz-46" target="VxMhAQQ1G3gWdsac0ksz-58">
          <mxGeometry relative="1" as="geometry" />
        </mxCell>
        <mxCell id="VxMhAQQ1G3gWdsac0ksz-63" value="peb.py" style="swimlane;fontStyle=0;childLayout=stackLayout;horizontal=1;startSize=30;horizontalStack=0;resizeParent=1;resizeParentMax=0;resizeLast=0;collapsible=1;marginBottom=0;whiteSpace=wrap;html=1;" vertex="1" parent="1">
          <mxGeometry x="690" y="260" width="140" height="90" as="geometry" />
        </mxCell>
        <mxCell id="VxMhAQQ1G3gWdsac0ksz-64" value="InitPeb" style="text;strokeColor=none;fillColor=none;align=left;verticalAlign=middle;spacingLeft=4;spacingRight=4;overflow=hidden;points=[[0,0.5],[1,0.5]];portConstraint=eastwest;rotatable=0;whiteSpace=wrap;html=1;" vertex="1" parent="VxMhAQQ1G3gWdsac0ksz-63">
          <mxGeometry y="30" width="140" height="30" as="geometry" />
        </mxCell>
        <mxCell id="VxMhAQQ1G3gWdsac0ksz-65" value="InitProcessHeap" style="text;strokeColor=none;fillColor=none;align=left;verticalAlign=middle;spacingLeft=4;spacingRight=4;overflow=hidden;points=[[0,0.5],[1,0.5]];portConstraint=eastwest;rotatable=0;whiteSpace=wrap;html=1;" vertex="1" parent="VxMhAQQ1G3gWdsac0ksz-63">
          <mxGeometry y="60" width="140" height="30" as="geometry" />
        </mxCell>
        <mxCell id="VxMhAQQ1G3gWdsac0ksz-68" style="edgeStyle=orthogonalEdgeStyle;rounded=0;orthogonalLoop=1;jettySize=auto;html=1;entryX=0;entryY=0.25;entryDx=0;entryDy=0;" edge="1" parent="1" source="VxMhAQQ1G3gWdsac0ksz-48" target="VxMhAQQ1G3gWdsac0ksz-63">
          <mxGeometry relative="1" as="geometry" />
        </mxCell>
        <mxCell id="VxMhAQQ1G3gWdsac0ksz-69" style="edgeStyle=orthogonalEdgeStyle;rounded=0;orthogonalLoop=1;jettySize=auto;html=1;" edge="1" parent="1" source="VxMhAQQ1G3gWdsac0ksz-47" target="VxMhAQQ1G3gWdsac0ksz-63">
          <mxGeometry relative="1" as="geometry">
            <Array as="points">
              <mxPoint x="570" y="274" />
            </Array>
          </mxGeometry>
        </mxCell>
        <mxCell id="VxMhAQQ1G3gWdsac0ksz-70" value="kuserSharedData.py" style="swimlane;fontStyle=0;childLayout=stackLayout;horizontal=1;startSize=30;horizontalStack=0;resizeParent=1;resizeParentMax=0;resizeLast=0;collapsible=1;marginBottom=0;whiteSpace=wrap;html=1;" vertex="1" parent="1">
          <mxGeometry x="690" y="360" width="140" height="60" as="geometry" />
        </mxCell>
        <mxCell id="VxMhAQQ1G3gWdsac0ksz-71" value="InitKuserSharedData" style="text;strokeColor=none;fillColor=none;align=left;verticalAlign=middle;spacingLeft=4;spacingRight=4;overflow=hidden;points=[[0,0.5],[1,0.5]];portConstraint=eastwest;rotatable=0;whiteSpace=wrap;html=1;" vertex="1" parent="VxMhAQQ1G3gWdsac0ksz-70">
          <mxGeometry y="30" width="140" height="30" as="geometry" />
        </mxCell>
        <mxCell id="VxMhAQQ1G3gWdsac0ksz-74" style="edgeStyle=orthogonalEdgeStyle;rounded=0;orthogonalLoop=1;jettySize=auto;html=1;entryX=0;entryY=0.25;entryDx=0;entryDy=0;" edge="1" parent="1" source="VxMhAQQ1G3gWdsac0ksz-49" target="VxMhAQQ1G3gWdsac0ksz-70">
          <mxGeometry relative="1" as="geometry" />
        </mxCell>
        <mxCell id="VxMhAQQ1G3gWdsac0ksz-78" value="unwrapping.py" style="swimlane;fontStyle=0;childLayout=stackLayout;horizontal=1;startSize=30;horizontalStack=0;resizeParent=1;resizeParentMax=0;resizeLast=0;collapsible=1;marginBottom=0;whiteSpace=wrap;html=1;" vertex="1" parent="1">
          <mxGeometry x="280" y="390" width="140" height="60" as="geometry" />
        </mxCell>
        <mxCell id="VxMhAQQ1G3gWdsac0ksz-79" value="unwrap" style="text;strokeColor=none;fillColor=none;align=left;verticalAlign=middle;spacingLeft=4;spacingRight=4;overflow=hidden;points=[[0,0.5],[1,0.5]];portConstraint=eastwest;rotatable=0;whiteSpace=wrap;html=1;" vertex="1" parent="VxMhAQQ1G3gWdsac0ksz-78">
          <mxGeometry y="30" width="140" height="30" as="geometry" />
        </mxCell>
        <mxCell id="VxMhAQQ1G3gWdsac0ksz-83" style="edgeStyle=orthogonalEdgeStyle;rounded=0;orthogonalLoop=1;jettySize=auto;html=1;entryX=0;entryY=0.25;entryDx=0;entryDy=0;" edge="1" parent="1" source="VxMhAQQ1G3gWdsac0ksz-4" target="VxMhAQQ1G3gWdsac0ksz-78">
          <mxGeometry relative="1" as="geometry" />
        </mxCell>
        <mxCell id="VxMhAQQ1G3gWdsac0ksz-84" value="util_unwrap.py" style="swimlane;fontStyle=0;childLayout=stackLayout;horizontal=1;startSize=30;horizontalStack=0;resizeParent=1;resizeParentMax=0;resizeLast=0;collapsible=1;marginBottom=0;whiteSpace=wrap;html=1;" vertex="1" parent="1">
          <mxGeometry x="500" y="440" width="140" height="90" as="geometry" />
        </mxCell>
        <mxCell id="VxMhAQQ1G3gWdsac0ksz-85" value="findApiCall" style="text;strokeColor=none;fillColor=none;align=left;verticalAlign=middle;spacingLeft=4;spacingRight=4;overflow=hidden;points=[[0,0.5],[1,0.5]];portConstraint=eastwest;rotatable=0;whiteSpace=wrap;html=1;" vertex="1" parent="VxMhAQQ1G3gWdsac0ksz-84">
          <mxGeometry y="30" width="140" height="30" as="geometry" />
        </mxCell>
        <mxCell id="VxMhAQQ1G3gWdsac0ksz-86" value="rebuild_IAT" style="text;strokeColor=none;fillColor=none;align=left;verticalAlign=middle;spacingLeft=4;spacingRight=4;overflow=hidden;points=[[0,0.5],[1,0.5]];portConstraint=eastwest;rotatable=0;whiteSpace=wrap;html=1;" vertex="1" parent="VxMhAQQ1G3gWdsac0ksz-84">
          <mxGeometry y="60" width="140" height="30" as="geometry" />
        </mxCell>
        <mxCell id="VxMhAQQ1G3gWdsac0ksz-90" style="edgeStyle=orthogonalEdgeStyle;rounded=0;orthogonalLoop=1;jettySize=auto;html=1;entryX=-0.023;entryY=0.15;entryDx=0;entryDy=0;entryPerimeter=0;" edge="1" parent="1" source="VxMhAQQ1G3gWdsac0ksz-79" target="VxMhAQQ1G3gWdsac0ksz-84">
          <mxGeometry relative="1" as="geometry" />
        </mxCell>
        <mxCell id="VxMhAQQ1G3gWdsac0ksz-93" value="dump file" style="rounded=0;whiteSpace=wrap;html=1;fillColor=#f8cecc;strokeColor=#b85450;" vertex="1" parent="1">
          <mxGeometry x="120" y="260" width="80" height="30" as="geometry" />
        </mxCell>
      </root>
    </mxGraphModel>
  </diagram>
</mxfile>
